<svg width="1035" height="535" viewBox="0 0 1035 535" fill="none" xmlns="http://www.w3.org/2000/svg">
<path d="M393.03 296.574C393.625 295.979 394.518 295.681 395.709 295.681C397.495 295.681 399.282 296.724 401.069 298.808C402.855 300.892 403.451 302.53 402.855 303.721C386.181 326.947 370.103 344.366 354.619 355.979C339.136 367.592 323.356 373.398 307.277 373.398C285.84 373.398 269.761 366.252 259.042 351.959C248.323 337.666 242.964 315.632 242.964 285.855V225.111C226.885 272.754 204.256 309.974 175.077 336.773C145.897 363.572 114.931 376.972 82.1791 376.972C57.7632 376.972 37.9632 368.783 22.7776 352.406C7.59279 336.029 0 310.868 0 276.922C0 237.617 10.7191 196.972 32.1567 154.987C53.5949 113.002 81.1365 78.1639 114.783 50.4714C148.428 22.7789 182.818 8.9326 217.952 8.9326C230.458 8.9326 243.41 10.8685 256.809 14.7394C270.208 18.6104 282.266 24.4165 292.986 32.1584C304.3 23.2258 312.637 13.1018 317.996 1.78637C319.188 0.595709 320.378 0 321.57 0C323.356 0 325.291 0.595709 327.375 1.78637C329.46 2.97779 330.204 3.87097 329.609 4.46668L327.822 285.855C327.227 299.552 328.567 309.974 331.842 317.121C335.117 324.267 340.03 327.84 346.581 327.84C352.535 327.84 359.682 325.011 368.018 319.354C376.355 313.696 384.692 306.103 393.03 296.574ZM133.094 311.761C152.745 311.761 171.057 302.233 188.029 283.175C205.001 264.118 218.399 240.744 228.225 213.051C238.051 185.359 242.964 159.9 242.964 136.675C242.964 110.471 236.86 89.9255 224.652 75.0374C212.444 60.1484 195.919 52.7047 175.077 52.7047C144.706 52.7047 120.886 67.4441 103.617 96.923C86.3473 126.402 77.7126 164.665 77.7126 211.711C78.3083 246.847 83.6679 272.307 93.7913 288.089C103.915 303.87 117.016 311.761 133.094 311.761Z" fill="black"/>
<path d="M718.172 57.1714C718.172 67.2954 713.408 78.1639 703.879 89.776C694.352 101.389 683.931 107.196 672.616 107.196C666.661 107.196 661.451 106.154 656.984 104.069C652.518 101.985 647.009 99.1564 640.459 95.5829C636.29 93.2008 632.271 91.1162 628.4 89.3298C624.529 87.5434 620.808 86.6495 617.235 86.6495C605.92 86.6495 595.35 101.091 585.524 129.975C575.698 158.858 567.957 193.995 562.3 235.384C556.643 276.773 553.516 314.143 552.921 347.493V354.639C552.921 366.549 535.949 372.505 502.006 372.505C481.163 372.505 470.147 370.123 468.955 365.359V344.812C470.147 328.138 470.741 312.952 470.741 299.255L471.635 100.05C471.635 70.8682 463.894 56.2774 448.411 56.2774C434.714 56.2774 418.635 68.1886 400.175 92.0094C398.984 93.2008 397.793 93.7965 396.602 93.7965C394.22 93.7965 392.136 92.7538 390.349 90.67C388.563 88.5854 388.563 86.352 390.349 83.97C408.214 58.9578 425.484 40.7936 442.158 29.4789C458.832 18.1634 476.399 12.5061 494.86 12.5061C515.702 12.5061 530.589 18.9079 539.522 31.7122C548.454 44.5158 553.516 63.7219 554.707 89.3298L553.814 184.913C561.555 131.911 573.167 89.776 588.651 58.5108C604.134 27.2455 624.38 11.6129 649.391 11.6129C664.279 11.6129 679.464 16.2283 694.947 25.4592C710.43 34.69 718.172 45.2602 718.172 57.1714Z" fill="black"/>
<path d="M902.112 376.972C864.596 376.972 833.183 367.741 807.875 349.279C782.566 330.817 763.956 306.848 752.046 277.369C740.137 247.89 735.075 217.071 736.862 184.913C737.457 153.349 746.687 124.02 764.552 96.923C782.417 69.8262 805.641 48.3868 834.226 32.6054C862.81 16.8241 891.989 8.93262 921.763 8.93262C947.37 8.93262 970.595 13.995 991.437 24.119C1012.28 34.243 1023.89 49.1312 1026.27 68.7836C1027.46 81.2904 1024.34 91.1162 1016.89 98.2624C1009.45 105.409 997.987 108.982 982.505 108.982C966.426 108.982 954.517 105.409 946.775 98.2624C939.033 91.1162 932.185 81.2904 926.23 68.7836C920.275 57.4689 914.32 48.8338 908.365 42.8782C902.41 36.9226 894.073 33.9456 883.354 33.9456C864.298 33.9456 849.262 44.0696 838.245 64.3176C827.228 84.5657 821.72 111.662 821.72 145.607C821.72 200.397 832.885 245.359 855.217 280.496C877.548 315.632 910.151 333.2 953.028 333.2C983.993 333.2 1008.41 326.053 1026.27 311.761H1027.17C1028.95 311.761 1030.89 312.803 1032.97 314.887C1035.06 316.972 1035.5 318.907 1034.31 320.693C1015.85 341.537 995.605 356.128 973.572 364.466C951.539 372.802 927.719 376.972 902.112 376.972Z" fill="black"/>
<path d="M432.27 534.73C428.72 534.73 425.234 534.246 421.813 533.278C418.392 532.309 415.567 530.824 413.34 528.823C411.113 526.822 410 524.272 410 521.173C410 519.107 410.5 517.284 411.501 515.702C412.501 514.121 413.647 512.587 414.938 511.103C416.423 516.977 418.876 521.319 422.297 524.126C425.718 526.935 429.882 528.339 434.788 528.339C436.982 528.339 439.161 527.919 441.323 527.08C443.486 526.241 445.294 524.885 446.746 523.013C448.198 521.141 448.925 518.688 448.925 515.654C448.925 513.201 448.489 511.006 447.617 509.069C446.746 507.132 445.439 505.26 443.696 503.453C441.953 501.645 439.742 499.661 437.063 497.498C434.384 495.335 431.205 492.769 427.526 489.799C424.299 487.153 421.571 484.296 419.344 481.23C417.117 478.164 416.003 474.339 416.003 469.755C416.003 464.849 417.133 460.717 419.392 457.361C421.652 454.004 424.75 451.438 428.688 449.663C432.625 447.887 437.144 447 442.243 447C445.083 447 447.763 447.371 450.28 448.113C452.798 448.855 454.831 450.001 456.38 451.551C457.93 453.1 458.704 455.102 458.704 457.554C458.704 459.362 458.203 460.992 457.203 462.444C456.202 463.897 455.251 465.01 454.347 465.785C453.572 463.784 452.378 461.912 450.764 460.169C449.151 458.426 447.23 456.99 445.003 455.86C442.776 454.73 440.242 454.165 437.402 454.165C434.11 454.165 431.221 455.231 428.736 457.361C426.251 459.491 425.008 462.655 425.008 466.85C425.008 469.11 425.331 470.966 425.976 472.418C426.622 473.871 427.752 475.339 429.365 476.824C430.979 478.308 433.222 480.165 436.095 482.392C438.967 484.619 442.663 487.637 447.182 491.446C449.505 493.383 451.507 495.335 453.185 497.304C454.863 499.273 456.171 501.468 457.106 503.889C458.043 506.31 458.51 509.231 458.51 512.652C458.51 516.719 457.397 520.431 455.17 523.788C452.943 527.145 449.86 529.807 445.923 531.777C441.985 533.745 437.435 534.73 432.27 534.73Z" fill="black"/>
<path d="M514.96 534.052C513.734 534.052 512.378 533.681 510.894 532.938C509.409 532.196 507.699 530.405 505.762 527.564C505.052 526.531 504.052 524.772 502.76 522.287C501.469 519.802 500.017 516.929 498.403 513.669C496.79 510.408 495.143 507.052 493.465 503.598C491.787 500.145 490.237 496.965 488.817 494.06C487.785 495.029 486.768 495.981 485.767 496.917C484.767 497.853 483.815 498.74 482.911 499.58C482.459 502.743 482.104 505.809 481.845 508.778C481.587 511.749 481.458 514.492 481.458 517.01C481.458 519.527 481.669 521.932 482.087 524.224C482.507 526.515 483.524 528.532 485.138 530.276C483.912 531.695 482.685 532.632 481.458 533.083C480.232 533.536 479.231 533.762 478.457 533.762C476.197 533.762 474.374 532.858 472.986 531.05C471.598 529.243 470.904 525.886 470.904 520.98C470.904 518.656 471.13 515.67 471.582 512.023C472.034 508.376 472.615 504.357 473.325 499.967C474.035 495.577 474.729 491.107 475.407 486.556C476.084 482.005 476.649 477.631 477.101 473.435C477.553 469.239 477.779 465.527 477.779 462.3C477.779 459.975 477.682 457.7 477.488 455.473C477.295 453.245 476.714 451.163 475.746 449.227C476.456 448.582 477.488 448.049 478.844 447.629C480.2 447.209 481.329 447 482.233 447C484.428 447 486.09 447.758 487.219 449.275C488.349 450.792 488.914 453.455 488.914 457.264C488.914 459.524 488.672 462.413 488.188 465.931C487.704 469.449 487.106 473.306 486.397 477.502C485.687 481.698 484.976 486.023 484.266 490.478C488.849 485.894 493.062 481.343 496.902 476.824C500.743 472.305 504.083 468.093 506.924 464.188C509.764 460.282 512.024 456.908 513.702 454.068C515.38 451.228 516.381 449.195 516.703 447.968C519.35 447.968 521.464 448.388 523.046 449.227C524.627 450.066 525.418 451.131 525.418 452.422C525.418 453.003 524.563 454.423 522.852 456.683C521.141 458.942 518.85 461.751 515.977 465.107C513.105 468.465 509.91 472.079 506.391 475.952C502.873 479.826 499.307 483.635 495.692 487.378C496.79 489.509 498.065 492.043 499.517 494.98C500.969 497.918 502.47 500.936 504.019 504.034C505.569 507.132 507.053 509.973 508.473 512.555C509.893 515.138 511.087 517.106 512.056 518.462C513.347 520.269 514.88 521.883 516.655 523.304C518.431 524.724 520.415 525.596 522.61 525.918C522.287 528.177 521.642 529.905 520.674 531.099C519.705 532.293 518.673 533.083 517.575 533.471C516.477 533.858 515.606 534.052 514.96 534.052Z" fill="black"/>
<path d="M539.652 533.762C537.392 533.762 535.569 532.858 534.181 531.05C532.793 529.243 532.099 525.886 532.099 520.98C532.099 518.656 532.325 515.67 532.777 512.023C533.228 508.376 533.81 504.357 534.52 499.967C535.229 495.577 535.924 491.107 536.601 486.556C537.279 482.005 537.844 477.631 538.296 473.435C538.748 469.239 538.973 465.527 538.973 462.3C538.973 459.975 538.877 457.7 538.684 455.473C538.489 453.245 537.909 451.163 536.941 449.227C537.651 448.582 538.684 448.049 540.039 447.629C541.394 447.209 542.524 447 543.428 447C545.622 447 547.285 447.758 548.415 449.275C549.544 450.792 550.109 453.455 550.109 457.264C550.109 459.653 549.85 462.655 549.334 466.269C548.818 469.884 548.205 473.871 547.494 478.228C546.785 482.585 546.059 487.056 545.316 491.639C544.574 496.223 543.945 500.694 543.428 505.051C542.912 509.408 542.653 513.395 542.653 517.01C542.653 519.527 542.863 521.932 543.283 524.224C543.702 526.515 544.719 528.532 546.333 530.276C545.106 531.695 543.88 532.632 542.653 533.083C541.427 533.536 540.426 533.762 539.652 533.762Z" fill="black"/>
<path d="M571.314 533.762C569.313 533.762 567.634 532.858 566.279 531.05C564.924 529.243 564.245 525.886 564.245 520.98C564.245 518.656 564.471 515.67 564.924 512.023C565.375 508.376 565.956 504.357 566.666 499.967C567.376 495.577 568.071 491.107 568.748 486.556C569.426 482.005 569.99 477.631 570.443 473.435C570.894 469.239 571.12 465.527 571.12 462.3C571.12 459.975 571.024 457.7 570.83 455.473C570.636 453.245 570.056 451.163 569.087 449.227C569.41 448.646 570.185 448.129 571.411 447.678C572.637 447.225 573.961 447 575.381 447C578.157 447 580.432 447.629 582.207 448.888C583.982 450.147 585.806 452.616 587.678 456.295C588.84 458.555 590.034 461.46 591.26 465.01C592.487 468.561 593.778 472.483 595.133 476.776C596.489 481.069 597.877 485.506 599.297 490.09C600.717 494.673 602.218 499.16 603.8 503.55C605.381 507.94 607.043 511.974 608.786 515.654C609.109 512.168 609.625 508.101 610.335 503.453C611.046 498.805 611.788 493.996 612.563 489.025C613.337 484.054 613.998 479.245 614.547 474.597C615.096 469.949 615.37 465.849 615.37 462.3C615.37 459.975 615.273 457.7 615.08 455.473C614.886 453.245 614.305 451.163 613.337 449.227C613.918 448.582 614.838 448.049 616.096 447.629C617.355 447.209 618.372 447 619.147 447C620.954 447 622.31 447.758 623.213 449.275C624.117 450.792 624.569 453.455 624.569 457.264C624.569 459.653 624.311 462.655 623.794 466.269C623.278 469.884 622.665 473.871 621.955 478.228C621.244 482.585 620.518 487.056 619.776 491.639C619.034 496.223 618.404 500.694 617.888 505.051C617.371 509.408 617.113 513.395 617.113 517.01C617.113 519.527 617.371 521.932 617.888 524.224C618.404 526.515 619.469 528.532 621.083 530.276C620.567 531.631 619.727 532.551 618.566 533.036C617.404 533.52 616.177 533.762 614.886 533.762C613.014 533.762 611.304 533.439 609.754 532.794C608.205 532.148 606.688 530.969 605.204 529.259C603.719 527.548 602.17 525.112 600.556 521.948C599.458 519.753 598.28 516.929 597.022 513.475C595.763 510.022 594.456 506.197 593.1 502C591.744 497.805 590.34 493.479 588.888 489.025C587.436 484.571 585.951 480.245 584.434 476.049C582.917 471.854 581.384 468.045 579.835 464.623C579.383 468.174 578.786 472.176 578.044 476.631C577.301 481.084 576.527 485.701 575.719 490.478C574.913 495.255 574.235 499.935 573.687 504.518C573.138 509.102 572.863 513.266 572.863 517.01C572.863 519.527 573.089 521.932 573.541 524.224C573.993 526.515 575.026 528.532 576.639 530.276C576.123 531.695 575.317 532.632 574.219 533.083C573.121 533.536 572.153 533.762 571.314 533.762Z" fill="black"/>
</svg>
